<svg width="209" height="150" viewBox="0 0 209 150" fill="none" xmlns="http://www.w3.org/2000/svg">
<g filter="url(#filter0_d_11226_86)">
<rect x="15" y="10" width="179" height="120" rx="20" fill="white"/>
</g>
<path d="M39 92.3096H64.2763V95.9869H39V92.3096Z" fill="#1F70C1"/>
<path d="M39 85.2561H64.2763V88.9464H39V85.2561Z" fill="#1F70C1"/>
<path d="M46.2108 78.2155H57.0527V81.9059H46.2108V78.2155Z" fill="#1F70C1"/>
<path d="M46.2108 71.1751H57.0527V74.8655H46.2108V71.1751Z" fill="#1F70C1"/>
<path d="M46.2108 64.1345H57.0527V67.8249H46.2108V64.1345Z" fill="#1F70C1"/>
<path d="M46.2108 57.081H57.0527V60.7714H46.2108V57.081Z" fill="#1F70C1"/>
<path d="M64.2763 50.0404H39V53.7308H64.2763V50.0404Z" fill="#1F70C1"/>
<path d="M64.2763 43H39V46.6904H64.2763V43Z" fill="#1F70C1"/>
<path d="M67.8817 88.9464H106.755C107.412 87.8079 107.901 86.5646 108.198 85.256H67.8817V88.9464Z" fill="#1F70C1"/>
<path d="M103.73 71.1751H75.1054V74.8655H106.756C105.931 73.4521 104.914 72.2089 103.73 71.1751Z" fill="#1F70C1"/>
<path d="M75.1054 64.1345V67.8249H103.73C104.94 66.7911 105.957 65.5478 106.756 64.1345H75.1054Z" fill="#1F70C1"/>
<path d="M106.756 50.0404H67.8817V53.7308H108.198C107.863 52.4222 107.374 51.1791 106.756 50.0404Z" fill="#1F70C1"/>
<path d="M94.8063 43H67.8817V46.6904H104.09C101.669 44.4133 98.3859 43 94.8063 43Z" fill="#1F70C1"/>
<path d="M85.9344 57.081H75.1054V60.7714H85.9344V57.081Z" fill="#1F70C1"/>
<path d="M96.7763 60.7714H108.107C108.429 59.5937 108.597 58.3504 108.597 57.081H96.7763V60.7714Z" fill="#1F70C1"/>
<path d="M75.1054 78.2155H85.9344V81.9059H75.1054V78.2155Z" fill="#1F70C1"/>
<path d="M96.7763 78.2155V81.9059H108.597C108.597 80.6365 108.429 79.3934 108.107 78.2155H96.7763Z" fill="#1F70C1"/>
<path d="M67.8817 95.9608L94.8063 96C98.4117 96 101.669 94.5867 104.103 92.3096H67.8817V95.9608Z" fill="#1F70C1"/>
<path d="M111.224 92.3096H129.276V95.9869H111.224V92.3096Z" fill="#1F70C1"/>
<path d="M111.224 85.2561H129.276V88.9464H111.224V85.2561Z" fill="#1F70C1"/>
<path d="M118.434 78.2155H129.276V81.9059H118.434V78.2155Z" fill="#1F70C1"/>
<path d="M118.434 71.1751H129.276V74.8655H118.434V71.1751Z" fill="#1F70C1"/>
<path d="M134.298 50.0404H111.224V53.7308H135.547L134.298 50.0404Z" fill="#1F70C1"/>
<path d="M131.903 43H111.224V46.6904H133.152L131.903 43Z" fill="#1F70C1"/>
<path d="M150.934 92.3096H169V95.9869H150.934V92.3096Z" fill="#1F70C1"/>
<path d="M150.934 85.2561H169V88.9464H150.934V85.2561Z" fill="#1F70C1"/>
<path d="M150.934 78.2155H161.776V81.9059H150.934V78.2155Z" fill="#1F70C1"/>
<path d="M150.934 71.1751H161.776V74.8655H150.934V71.1751Z" fill="#1F70C1"/>
<path d="M150.934 67.8249H161.776V64.1345H141.123L140.105 67.1183L139.088 64.1345H118.434V67.8249H129.276V64.4355L130.422 67.8249H149.788L150.934 64.4355V67.8249Z" fill="#1F70C1"/>
<path d="M161.776 57.081H143.518L142.269 60.7714H161.776V57.081Z" fill="#1F70C1"/>
<path d="M148.321 43L147.071 46.6904H169V43H148.321Z" fill="#1F70C1"/>
<path d="M140.105 95.9608L141.354 92.3096H138.856L140.105 95.9608Z" fill="#1F70C1"/>
<path d="M137.71 88.9464H142.5L143.788 85.2561H136.436L137.71 88.9464Z" fill="#1F70C1"/>
<path d="M135.277 81.9059H144.934L146.209 78.2155H134.002L135.277 81.9059Z" fill="#1F70C1"/>
<path d="M132.856 74.8655H147.368L148.604 71.1751H131.607L132.856 74.8655Z" fill="#1F70C1"/>
<path d="M118.434 60.7714H137.942L136.693 57.081H118.434V60.7714Z" fill="#1F70C1"/>
<path d="M144.676 53.7308H169V50.0404H145.913L144.676 53.7308Z" fill="#1F70C1"/>
<rect x="15" y="10" width="180" height="120" rx="20" fill="white" style="mix-blend-mode:color"/>
<defs>
<filter id="filter0_d_11226_86" x="0" y="0" width="209" height="150" filterUnits="userSpaceOnUse" color-interpolation-filters="sRGB">
<feFlood flood-opacity="0" result="BackgroundImageFix"/>
<feColorMatrix in="SourceAlpha" type="matrix" values="0 0 0 0 0 0 0 0 0 0 0 0 0 0 0 0 0 0 127 0" result="hardAlpha"/>
<feOffset dy="5"/>
<feGaussianBlur stdDeviation="7.5"/>
<feComposite in2="hardAlpha" operator="out"/>
<feColorMatrix type="matrix" values="0 0 0 0 0 0 0 0 0 0 0 0 0 0 0 0 0 0 0.1 0"/>
<feBlend mode="normal" in2="BackgroundImageFix" result="effect1_dropShadow_11226_86"/>
<feBlend mode="normal" in="SourceGraphic" in2="effect1_dropShadow_11226_86" result="shape"/>
</filter>
</defs>
</svg>
