<svg width="209" height="150" viewBox="0 0 209 150" fill="none" xmlns="http://www.w3.org/2000/svg">
<g filter="url(#filter0_d_11226_58)">
<rect x="15" y="10" width="179" height="120" rx="20" fill="white"/>
</g>
<path d="M105.264 55.374H107.214V54.899L106.712 54.3942H104.289L103.787 54.899V58.8181L104.289 59.2932H106.712L107.214 58.8181V58.3431H105.264V57.3633H107.214V56.3835H105.264V55.374Z" fill="#1D1D1B"/>
<path d="M106.889 50H104.141V52.7612H106.889V50Z" fill="#1D1D1B"/>
<path d="M101.542 56.3538H100.094V54.3942H99.1191L98.6169 54.899V58.8181L99.1191 59.2932H100.094V57.3336H101.542V59.2932H102.517L102.989 58.8181V54.8693L102.517 54.3645H101.542V56.3538Z" fill="#1D1D1B"/>
<path d="M93.9196 54.3942L93.4174 54.899V55.374H94.865V58.7884L95.3672 59.2635H95.8399L96.3126 58.7884V55.374H97.7602V54.899L97.2875 54.3942H93.9196Z" fill="#1D1D1B"/>
<path d="M40.9498 60.9559L39 62.9154V70.7538L40.9498 72.7134H48.749V76.6325H44.8494V74.6729H39V78.5921L40.9498 80.5517H52.6191L54.5689 78.5921V70.7538L52.6191 68.7942H44.8494V64.875H48.749V66.8346H54.5985V62.9154L52.6487 60.9559H40.9498Z" fill="#1D1D1B"/>
<path d="M93.506 60.9559V80.522H107.125L109.075 78.5624V62.9154L107.125 60.9559H93.506ZM99.3555 64.875H103.255V76.6028H99.3555V64.875Z" fill="#1D1D1B"/>
<path d="M111.025 60.9559V80.522H124.644L126.594 78.5624V72.6837L124.644 70.7241L126.594 68.7645V62.8858L124.644 60.9262L111.025 60.9559ZM116.874 72.7134H120.774V76.6325H116.874V72.7134ZM116.874 68.7942V64.875H120.774V68.7942H116.874Z" fill="#1D1D1B"/>
<path d="M130.493 60.9559L128.544 62.9154V78.5624L130.493 80.522H142.163L144.112 78.5624V62.9154L142.163 60.9559H130.493ZM134.393 64.875H138.293V76.6028H134.393V64.875Z" fill="#1D1D1B"/>
<path d="M165.323 67.0449L161.647 70.7399L165.323 74.4349L169 70.7399L165.323 67.0449Z" fill="#1D1D1B"/>
<path d="M64.0777 81.61L60.4012 85.305L64.0778 89L67.7543 85.305L64.0777 81.61Z" fill="#1D1D1B"/>
<path d="M155.811 60.9559V66.8346L153.862 68.7942L151.912 66.8346V60.9559H148.012L146.062 62.9154V68.7942L148.012 70.7538L146.062 72.7134V78.5921L148.012 80.5517H151.912V74.6729L153.862 72.7134L155.811 74.6729V80.5517H159.711L161.661 78.5921V72.7134L159.711 70.7538L161.661 68.7942V62.9154L159.711 60.9559H155.811Z" fill="#1D1D1B"/>
<path d="M85.7068 60.9559V66.8346L79.8574 60.9559H75.9578L74.0079 62.9154V78.5624L75.9578 80.522H79.8574V68.7942L85.7068 74.6729V80.5517H89.6064L91.5562 78.5921V62.9451L89.6064 60.9855H85.7068V60.9559Z" fill="#1D1D1B"/>
<path d="M70.1379 61.0152H58.4686L56.5187 62.9748V78.6218L58.4686 80.5814H62.3682V72.743H66.2678V80.5814H70.1674L72.1172 78.6218V62.9748L70.1379 61.0152ZM64.318 69.5365L61.8364 67.0424L64.318 64.5484L66.7996 67.0424L64.318 69.5365Z" fill="#1D1D1B"/>
<rect x="15" y="10" width="180" height="120" rx="20" fill="white" style="mix-blend-mode:color"/>
<defs>
<filter id="filter0_d_11226_58" x="0" y="0" width="209" height="150" filterUnits="userSpaceOnUse" color-interpolation-filters="sRGB">
<feFlood flood-opacity="0" result="BackgroundImageFix"/>
<feColorMatrix in="SourceAlpha" type="matrix" values="0 0 0 0 0 0 0 0 0 0 0 0 0 0 0 0 0 0 127 0" result="hardAlpha"/>
<feOffset dy="5"/>
<feGaussianBlur stdDeviation="7.5"/>
<feComposite in2="hardAlpha" operator="out"/>
<feColorMatrix type="matrix" values="0 0 0 0 0 0 0 0 0 0 0 0 0 0 0 0 0 0 0.1 0"/>
<feBlend mode="normal" in2="BackgroundImageFix" result="effect1_dropShadow_11226_58"/>
<feBlend mode="normal" in="SourceGraphic" in2="effect1_dropShadow_11226_58" result="shape"/>
</filter>
</defs>
</svg>
