<svg width="210" height="150" viewBox="0 0 210 150" fill="none" xmlns="http://www.w3.org/2000/svg">
<g filter="url(#filter0_d_11226_74)">
<rect x="15" y="10" width="180" height="120" rx="20" fill="white"/>
</g>
<path d="M173.661 81C174.994 80.4871 178.473 78.6003 180 78.179C178.473 78.179 179.227 78.1973 177.7 78.1973C128.454 78.4538 79.2269 78.8568 30 79.6078C77.8933 80.3589 125.767 80.7435 173.661 81Z" fill="#A39161"/>
<path d="M159.648 59.403H163.804V66.4188H163.997L173.661 59.403H179.266L168.346 67.0599L180 75.9625H174.163L164.036 67.8293H163.804V75.9625H159.648V59.403ZM151.26 63.2864C149.54 62.0042 147.955 61.6561 146.351 61.6561C141.538 61.6561 138.349 64.2756 138.349 67.5729C138.349 71.1082 141.538 73.7277 146.351 73.7277C148.226 73.7277 150.043 73.1232 151.589 71.7127L155.01 73.453C152.903 75.5046 149.733 76.4022 146.312 76.4022C139.123 76.4022 133.981 72.9401 133.981 67.7744C133.981 62.4621 139.123 59 146.312 59C149.482 59 152.188 59.7327 154.488 61.6195L151.26 63.2864ZM124.086 59.403H128.241V75.9625H124.086V59.403ZM101.55 59.403H109.668C114.152 59.403 118.365 60.4288 118.365 64.1474C118.365 66.5287 116.413 68.2873 112.953 68.6353L119.157 75.9625H114.152L108.74 68.9467H105.705V75.9625H101.55V59.403ZM108.933 66.4188C111.272 66.4188 114.016 66.2723 114.016 64.1291C114.016 62.169 111.446 61.9309 109.3 61.9309H105.705V66.4188H108.933ZM78.8983 59.403H87.0158C91.4998 59.403 95.7132 60.4288 95.7132 64.1474C95.7132 66.5287 93.7611 68.2873 90.3015 68.6353L96.5056 75.9625H91.4998L86.0881 68.9467H83.0537V75.9625H78.8983V59.403ZM86.2814 66.4188C88.62 66.4188 91.3645 66.2723 91.3645 64.1291C91.3645 62.169 88.794 61.9309 86.6486 61.9309H83.0537V66.4188H86.2814ZM60.7692 59.403H64.3641L74.4144 75.9625H69.6598L67.4758 72.1707H57.3482L55.2609 75.9625H50.6223L60.7692 59.403ZM66.0456 69.6428L62.4507 62.9017L58.7978 69.6428H66.0456ZM30.0193 59.403H39.1032C42.6208 59.403 46.2543 60.557 46.2543 63.5612C46.2543 65.4296 44.6115 66.6753 42.1956 67.1882V67.2431C45.1334 67.4813 47.24 69.1116 47.24 71.2365C47.24 74.8451 42.8141 75.9625 38.4074 75.9625H30.0193V59.403ZM34.1747 66.1257H37.9629C40.7267 66.1257 42.1183 65.2831 42.1183 64.0375C42.1183 62.6087 40.7267 61.9126 37.5956 61.9126H34.1747V66.1257ZM34.1747 73.4346H38.0015C40.1469 73.4346 43.104 73.1782 43.104 70.9983C43.104 69.2581 41.5191 68.6536 38.1562 68.6536H34.1747V73.4346Z" fill="#005581"/>
<rect x="15" y="10" width="180" height="120" rx="20" fill="white" style="mix-blend-mode:color"/>
<defs>
<filter id="filter0_d_11226_74" x="0" y="0" width="210" height="150" filterUnits="userSpaceOnUse" color-interpolation-filters="sRGB">
<feFlood flood-opacity="0" result="BackgroundImageFix"/>
<feColorMatrix in="SourceAlpha" type="matrix" values="0 0 0 0 0 0 0 0 0 0 0 0 0 0 0 0 0 0 127 0" result="hardAlpha"/>
<feOffset dy="5"/>
<feGaussianBlur stdDeviation="7.5"/>
<feComposite in2="hardAlpha" operator="out"/>
<feColorMatrix type="matrix" values="0 0 0 0 0 0 0 0 0 0 0 0 0 0 0 0 0 0 0.1 0"/>
<feBlend mode="normal" in2="BackgroundImageFix" result="effect1_dropShadow_11226_74"/>
<feBlend mode="normal" in="SourceGraphic" in2="effect1_dropShadow_11226_74" result="shape"/>
</filter>
</defs>
</svg>
