<svg width="210" height="150" viewBox="0 0 210 150" fill="none" xmlns="http://www.w3.org/2000/svg">
<g opacity="0.5" filter="url(#filter0_d_11226_15)">
<rect x="15" y="10" width="180" height="120" rx="20" fill="white"/>
</g>
<path d="M155 64.9159H120.445V56.0842H155V64.9159Z" fill="#E669A2"/>
<path d="M150.512 64.9159H120.445V42.8271H150.512V64.9159Z" fill="#F3BE26"/>
<path d="M138.09 64.9159H120.445V34H138.09V64.9159Z" fill="#EE9C34"/>
<path d="M141.561 64.9159H120.445V37.4497H141.561V64.9159Z" fill="#F3BC87"/>
<path d="M120.44 37.4549V64.9131H138.088V37.4549H120.44Z" fill="#E3721C"/>
<path d="M102.752 64.9159L120.445 64.9159V69.3322H102.752V64.9159Z" fill="#AD1B02"/>
<path d="M120.44 42.8222V64.9131H141.571V42.8222H120.44Z" fill="#E88D14"/>
<path d="M120.44 42.8222V64.9131H138.088V42.8222H120.44Z" fill="#D85604"/>
<path d="M131.479 64.9159H120.445V51.6578H131.479V64.9159Z" fill="#C14303"/>
<path d="M120.44 56.0906V64.9131H150.522V56.0906H120.44Z" fill="#DB4E18"/>
<path d="M120.44 56.0906V64.9131H141.571V56.0906H120.44Z" fill="#D1390D"/>
<path d="M120.44 56.0906V64.9131H138.088V56.0906H120.44Z" fill="#C22303"/>
<path d="M120.44 56.0906V64.9131H131.49V56.0906H120.44Z" fill="#AD1B02"/>
<path d="M124.292 81.5496C121.282 82.084 119.676 84.3554 119.676 88.2968C119.676 92.3051 121.817 94.9773 124.961 94.9773C126.5 94.9773 127.838 94.4428 130.648 93.0399C130.648 96.3134 130.648 96.3134 130.648 96.3134C127.236 97.9167 125.229 98.3175 122.553 98.3175C119.542 98.3175 117.401 97.5826 115.729 95.7789C113.989 94.042 113.053 91.7707 113.053 89.1653C113.053 83.4869 117.335 79.5454 123.556 79.5454C127.637 79.5454 130.514 81.4828 130.514 84.2217C130.514 86.0255 129.176 87.2948 127.236 87.2948C126.232 87.2948 125.43 86.9607 124.292 86.3595" fill="black"/>
<path d="M109.239 89.1653C111.982 85.7583 112.986 84.3554 112.986 82.6852C112.986 81.0151 111.648 79.5454 109.775 79.5454C108.704 79.5454 107.701 80.1467 107.232 80.6811C107.232 87.6956 107.232 87.6956 107.232 87.6956C102.75 93.708 102.75 93.708 102.75 93.708C102.75 80.0799 102.75 80.0799 102.75 80.0799C98.4683 80.0799 98.4683 80.0799 98.4683 80.0799C91.3768 91.7706 91.3768 91.7707 91.3768 91.7707C91.3768 80.0799 91.3768 80.0799 91.3768 80.0799C88.9683 80.0799 88.9683 80.0799 88.9683 80.0799C82.4789 81.5496 82.4789 81.5496 82.4789 81.5496C82.4789 83.2197 82.4789 83.2197 82.4789 83.2197C86.0246 83.5537 86.0246 83.5537 86.0246 83.5537C86.0246 98.0503 86.0246 98.0503 86.0246 98.0503C90.507 98.0503 90.507 98.0503 90.507 98.0503C97.331 86.8271 97.331 86.8271 97.331 86.8271C97.331 98.0503 97.331 98.0503 97.331 98.0503C102.349 98.0503 102.349 98.0503 102.349 98.0503" fill="black"/>
<path d="M68.8979 95.7789C69.4331 95.7789 69.5669 95.7789 69.9014 95.7789C73.5141 95.7789 75.5211 93.5744 75.5211 89.1653C75.5211 85.491 73.9155 83.4869 70.9049 83.4869C70.5035 83.4869 69.9014 83.5537 68.8979 83.7541V95.7789ZM68.8979 103.662C71.8415 104.33 71.8415 104.33 71.8415 104.33C71.8415 106 71.8415 106 71.8415 106C60.2676 106 60.2676 106 60.2676 106C60.2676 104.33 60.2676 104.33 60.2676 104.33C62.9437 103.662 62.9437 103.662 62.9437 103.662C62.9437 83.4869 62.9437 83.4869 62.9437 83.4869C60 83.4869 60 83.4869 60 83.4869C60 81.8168 60 81.8168 60 81.8168C67.0246 79.679 67.0246 79.679 67.0246 79.679C68.8979 79.679 68.8979 79.679 68.8979 79.679C68.8979 82.084 68.8979 82.084 68.8979 82.084C72.1761 80.0799 73.3134 79.7458 75.0528 79.7458C78.9331 79.7458 81.8768 83.3533 81.8768 88.3636C81.8768 94.1088 77.9296 98.0503 71.9085 98.0503C71.2394 98.0503 70.1021 97.9835 68.8979 97.9167" fill="black"/>
<rect x="15" y="10" width="180" height="120" rx="20" fill="white" style="mix-blend-mode:color"/>
<defs>
<filter id="filter0_d_11226_15" x="0" y="0" width="210" height="150" filterUnits="userSpaceOnUse" color-interpolation-filters="sRGB">
<feFlood flood-opacity="0" result="BackgroundImageFix"/>
<feColorMatrix in="SourceAlpha" type="matrix" values="0 0 0 0 0 0 0 0 0 0 0 0 0 0 0 0 0 0 127 0" result="hardAlpha"/>
<feOffset dy="5"/>
<feGaussianBlur stdDeviation="7.5"/>
<feComposite in2="hardAlpha" operator="out"/>
<feColorMatrix type="matrix" values="0 0 0 0 0 0 0 0 0 0 0 0 0 0 0 0 0 0 0.1 0"/>
<feBlend mode="normal" in2="BackgroundImageFix" result="effect1_dropShadow_11226_15"/>
<feBlend mode="normal" in="SourceGraphic" in2="effect1_dropShadow_11226_15" result="shape"/>
</filter>
</defs>
</svg>
