<svg width="210" height="150" viewBox="0 0 210 150" fill="none" xmlns="http://www.w3.org/2000/svg">
<g filter="url(#filter0_d_11226_62)">
<rect x="15" y="10" width="180" height="120" rx="20" fill="white"/>
</g>
<path d="M117.792 52.9918H103.667V54.268C104.333 54.3503 104.875 54.3915 105.333 54.515C105.875 54.6385 106.25 54.8031 106.542 55.0501C107.375 55.75 107.375 57.1085 107.375 59.4963V75.6751C107.375 78.9686 107.667 83.6205 102.958 83.5382C100.917 83.497 98.875 82.0973 98.2083 79.5037H96.5833C97.25 83.8675 99.625 86.8316 105.333 86.8316C110.167 86.8316 114.5 84.6085 114.5 77.1572V59.4963C114.5 57.0674 114.5 55.8323 115.333 55.0913C115.875 54.6385 116.292 54.4326 117.792 54.268V52.9918Z" fill="black"/>
<path d="M134.042 52.9918H119.917V54.268C121.375 54.3915 121.875 54.6385 122.375 55.0913C123.042 55.6677 123.167 56.5734 123.167 58.1789C123.167 58.6729 123.167 59.1669 123.167 59.7844V79.1332C123.167 79.7096 123.167 80.2448 123.167 80.7388C123.125 82.3031 123.042 83.2912 122.375 83.8263C121.833 84.2792 121.417 84.485 119.917 84.6497V85.9259H141.25L143.5 79.4626H141.875C140.25 83.003 137.708 83.4147 135.375 83.4147C133.458 83.4147 132.208 83.2912 131.333 82.756C130.625 82.3031 130.375 81.1093 130.333 79.0509V59.4963C130.333 57.0674 130.333 55.75 131.167 55.0501C131.708 54.5973 132.583 54.4326 134.083 54.3091L134.042 52.9918Z" fill="black"/>
<path d="M143.417 52.9918V54.268C144.875 54.3915 145.375 54.6385 145.875 55.0913C146.542 55.6677 146.667 56.5734 146.667 58.1789C146.667 58.6729 146.667 59.1669 146.667 59.7844V79.1332C146.667 79.7096 146.667 80.2448 146.667 80.7388C146.625 82.3031 146.542 83.2912 145.875 83.8263C145.333 84.2792 144.917 84.485 143.417 84.6497V85.9259H164.75L167 79.4626H165.375C163.75 83.003 161.208 83.4147 158.875 83.4147C156.958 83.4147 155.708 83.2912 154.833 82.756C154.125 82.3031 153.875 81.1093 153.833 79.0509V59.4963C153.833 57.0674 153.833 55.75 154.667 55.0501C155.208 54.5973 156.083 54.4326 157.583 54.3091V52.9918H143.417Z" fill="black"/>
<path d="M62.75 95.9296C63.4167 95.6415 64.0417 95.271 64.6667 94.8593C64.7917 94.7769 64.9167 94.6946 65.0417 94.6123C65.7917 94.0771 66.4583 93.4596 67.125 92.7186C67.9583 91.854 68.7083 90.866 69.4167 89.8368C69.9583 89.0546 70.4167 88.1901 70.875 87.3256C72.5833 83.9498 73.7083 80.2448 74.2917 76.5808C74.6667 74.1931 74.8333 71.8054 74.8333 69.4588C74.8333 67.1123 74.6667 64.7246 74.2917 62.3368C73.7083 58.6729 72.625 54.9266 70.875 51.5921C70.6667 51.2216 70.4583 50.8099 70.25 50.4394C69.3333 52.0861 68.5833 53.8563 67.9583 55.7088C69.0833 59.0022 69.75 62.5015 70 65.9596C70.0833 67.1123 70.125 68.3473 70.125 69.5C70.125 70.6527 70.0833 71.8877 70 73.0404C69.7083 77.2807 68.8333 81.521 67.1667 85.473C66.5417 86.9963 65.7917 88.4783 64.875 89.878C64.6667 90.2073 64.5 90.5367 64.25 90.866C63.7917 91.5247 63.3333 92.1422 62.8333 92.8009C62.25 93.5007 61.625 94.2006 60.9167 94.8593C60.2083 95.5591 59.4583 96.1766 58.625 96.753C58.5417 96.7942 58.5 96.8353 58.4167 96.8765V96.9588C59.875 96.9177 61.4167 96.5471 62.75 95.9296Z" fill="#E30613"/>
<path d="M71.4167 95.9296C72.0833 95.6415 72.7083 95.271 73.3333 94.8593C73.4583 94.7769 73.5833 94.6946 73.7083 94.6123C76.25 92.7186 78.125 90.1662 79.5417 87.4079C81.25 84.0322 82.375 80.3271 82.9583 76.6632C83.3333 74.2754 83.5 71.8877 83.5 69.5412C83.5 67.1946 83.3333 64.8069 82.9583 62.4192C82.375 58.7552 81.2917 55.009 79.5417 51.6744C78.25 49.122 76.5 46.7343 74.25 44.8817C73.5417 45.6228 72.875 46.4461 72.25 47.3106C72.4583 47.5988 72.6667 47.887 72.875 48.1751C76.4583 53.4446 78.2083 59.7021 78.625 66.0007C78.7083 67.1534 78.75 68.3885 78.75 69.5412C78.75 70.6939 78.7083 71.9289 78.625 73.0816C78.2083 79.3802 76.4583 85.6789 72.875 90.9072C72.4167 91.5659 71.9583 92.1834 71.4583 92.8421C70.875 93.5419 70.25 94.2418 69.5417 94.9004C68.8333 95.6003 68.0833 96.2178 67.25 96.7942C67.1667 96.8353 67.125 96.8765 67.0417 96.9177V97C68.5833 96.9177 70.0833 96.5471 71.4167 95.9296Z" fill="#E30613"/>
<path d="M82.4167 94.5711C84.9583 92.6774 86.8333 90.125 88.25 87.3668C89.9583 83.991 91.0833 80.2859 91.6667 76.622C92.0417 74.2343 92.2083 71.8466 92.2083 69.5C92.2083 67.1534 92.0417 64.7657 91.6667 62.378C91.0833 58.7141 90 54.9678 88.25 51.6332C86.8333 48.875 84.9167 46.2403 82.4167 44.4289C80.5 42.9469 78.125 42.0412 75.7917 42V42.0823C78.0833 43.6467 80.0417 45.8286 81.5417 48.134C85.125 53.4034 86.875 59.6609 87.2917 65.9596C87.375 67.1123 87.4167 68.3473 87.4167 69.5C87.4167 70.6527 87.375 71.8877 87.2917 73.0404C86.875 79.3391 85.125 85.6377 81.5417 90.866C80 93.1302 78.0417 95.3121 75.75 96.9177V97C78.125 96.9177 80.5 96.012 82.4167 94.5711Z" fill="#E30613"/>
<path d="M71.4167 43.0292C70.75 43.3174 70.125 43.6879 69.5 44.0996C69.375 44.1819 69.25 44.2642 69.125 44.3466C68.4167 44.8817 67.7083 45.4993 67.0417 46.1991C66.2083 47.0636 65.4583 48.0516 64.75 49.0808C64.2083 49.863 63.75 50.7275 63.2917 51.5921C61.5833 54.9678 60.4583 58.6729 59.875 62.3368C59.5 64.7246 59.3333 67.1123 59.3333 69.4588C59.3333 71.8054 59.5 74.1931 59.875 76.5808C60.4583 80.2448 61.5417 83.991 63.2917 87.3256C63.5 87.6961 63.7083 88.1078 63.9167 88.4783C64.8333 86.8316 65.5833 85.0614 66.2083 83.2088C65.0833 79.9154 64.4167 76.4162 64.1667 72.9581C64.0833 71.8054 64.0417 70.5704 64.0417 69.4177C64.0417 68.265 64.0833 67.0299 64.1667 65.8772C64.4583 61.637 65.3333 57.3967 67 53.4446C67.6667 51.9626 68.4167 50.4394 69.3333 49.0397C69.5417 48.7103 69.7083 48.381 69.9583 48.0516C70.4167 47.393 70.875 46.7754 71.375 46.1168C71.9583 45.4169 72.5833 44.7171 73.2917 44.0584C74 43.3585 74.75 42.741 75.5833 42.1647C75.6667 42.1235 75.7083 42.0823 75.7917 42.0412V42C74.2917 42.0412 72.8333 42.4117 71.4167 43.0292Z" fill="#E30613"/>
<path d="M62.75 43.0292C62.0833 43.3174 61.4583 43.6879 60.8333 44.0996C60.7083 44.1819 60.5833 44.2642 60.4583 44.3466C57.9583 46.2403 56.0833 48.7927 54.625 51.5509C52.9167 54.9266 51.7917 58.6317 51.2083 62.2957C50.8333 64.7245 50.6667 67.0711 50.6667 69.4588C50.6667 71.8054 50.8333 74.1931 51.2083 76.5808C51.7917 80.2448 52.875 83.991 54.625 87.3256C55.9167 89.878 57.6667 92.2657 59.9167 94.1183C60.625 93.3772 61.2917 92.5539 61.9167 91.6894C61.7083 91.4012 61.5 91.113 61.2917 90.8248C57.7083 85.5554 55.9583 79.2979 55.5417 72.9993C55.4583 71.8466 55.4167 70.6115 55.4167 69.4588C55.4167 68.3061 55.4583 67.0711 55.5417 65.9184C55.9583 59.6198 57.7083 53.3211 61.2917 48.0928C61.75 47.4341 62.2083 46.8166 62.7083 46.1579C63.2917 45.4581 63.9167 44.7582 64.625 44.0996C65.3333 43.4409 66.0833 42.8234 66.875 42.2882C66.9583 42.247 67 42.2058 67.0833 42.1647V42C65.625 42.0412 64.125 42.4117 62.75 43.0292Z" fill="#E30613"/>
<path d="M51.7917 44.3877C49.25 46.2814 47.375 48.8338 45.9583 51.5921C44.25 54.9678 43.125 58.6729 42.5417 62.3368C42.1667 64.7657 42 67.1123 42 69.5C42 71.8466 42.1667 74.2343 42.5417 76.622C43.125 80.2859 44.2083 84.0322 45.9583 87.3668C47.375 90.125 49.2917 92.7597 51.7917 94.5711C53.7083 95.9296 56.0417 96.8765 58.4167 96.9588V96.8765C56.0833 95.3121 54.1667 93.1302 52.625 90.8248C49.0417 85.5554 47.2917 79.2979 46.875 72.9993C46.7917 71.8466 46.75 70.6115 46.75 69.4588C46.75 68.3061 46.7917 67.0711 46.875 65.9184C47.2917 59.6198 49.0417 53.3211 52.625 48.0928C54.125 45.8286 56.0833 43.6467 58.4167 42.0823V42C56.0417 42.0412 53.6667 42.9469 51.7917 44.3877Z" fill="#E30613"/>
<path d="M68.625 94.1594C69.3333 93.4184 70 92.5951 70.625 91.7305C70.4167 91.4424 70.2083 91.1542 70 90.866C69.7917 90.5367 69.5833 90.2073 69.375 89.878C68.7083 90.866 67.9583 91.8952 67.0833 92.7597C67.5417 93.2537 68.125 93.7066 68.625 94.1594Z" fill="#E30613"/>
<path d="M73.3333 94.8593C72.75 95.271 72.125 95.6003 71.4167 95.9296C72.75 96.5471 74.2917 96.9177 75.75 96.9588V96.8765C74.9167 96.3001 74.0833 95.6003 73.3333 94.8593Z" fill="#E30613"/>
<path d="M66.2917 96.9177C66.5417 96.8765 66.75 96.8353 67 96.8353C66.75 96.6707 66.5417 96.506 66.2917 96.3413C65.7083 95.8885 65.1667 95.4356 64.6667 94.9416C64.0833 95.3533 63.4583 95.6826 62.75 96.012C63.625 96.4236 64.625 96.7118 65.5833 96.8765C65.8333 96.8353 66.0417 96.8765 66.2917 96.9177ZM67.0833 96.9588V96.8765C67.0417 96.8353 67 96.8353 66.9583 96.7942C66.7083 96.8353 66.5 96.8765 66.25 96.8765C66.5417 96.9588 66.8333 96.9588 67.0833 96.9588Z" fill="#E30613"/>
<path d="M65.5833 44.8406C64.875 45.5816 64.2083 46.4049 63.5833 47.2695C63.7917 47.5576 64 47.8458 64.2083 48.134C64.4167 48.4633 64.625 48.7927 64.8333 49.122C65.5 48.134 66.25 47.1048 67.125 46.2403C66.625 45.7051 66.125 45.2522 65.5833 44.8406Z" fill="#E30613"/>
<path d="M60.8333 44.1407C61.4167 43.729 62.0417 43.3997 62.75 43.0704C61.4167 42.4117 59.875 42.0412 58.4167 42V42.0823C59.2917 42.6587 60.0833 43.3585 60.8333 44.1407Z" fill="#E30613"/>
<path d="M71.4167 43.0292C70.5417 42.6175 69.5417 42.3293 68.5833 42.1647C68.3333 42.1235 68.125 42.0823 67.875 42.0823C67.625 42.0412 67.375 42 67.0833 42V42.0823C67.125 42.1235 67.1667 42.1235 67.2083 42.1647C67.4583 42.3293 67.6667 42.494 67.9167 42.6587C68.5 43.1115 69.0417 43.5644 69.5417 44.0584C70.1667 43.6879 70.7917 43.3174 71.4167 43.0292Z" fill="#E30613"/>
<rect x="15" y="10" width="180" height="120" rx="20" fill="white" style="mix-blend-mode:color"/>
<defs>
<filter id="filter0_d_11226_62" x="0" y="0" width="210" height="150" filterUnits="userSpaceOnUse" color-interpolation-filters="sRGB">
<feFlood flood-opacity="0" result="BackgroundImageFix"/>
<feColorMatrix in="SourceAlpha" type="matrix" values="0 0 0 0 0 0 0 0 0 0 0 0 0 0 0 0 0 0 127 0" result="hardAlpha"/>
<feOffset dy="5"/>
<feGaussianBlur stdDeviation="7.5"/>
<feComposite in2="hardAlpha" operator="out"/>
<feColorMatrix type="matrix" values="0 0 0 0 0 0 0 0 0 0 0 0 0 0 0 0 0 0 0.1 0"/>
<feBlend mode="normal" in2="BackgroundImageFix" result="effect1_dropShadow_11226_62"/>
<feBlend mode="normal" in="SourceGraphic" in2="effect1_dropShadow_11226_62" result="shape"/>
</filter>
</defs>
</svg>
