<svg width="210" height="150" viewBox="0 0 210 150" fill="none" xmlns="http://www.w3.org/2000/svg">
<g filter="url(#filter0_d_11226_90)">
<rect x="15" y="10" width="180" height="120" rx="20" fill="white"/>
</g>
<path d="M88.7615 87.1271C83.5521 83.7597 76.4823 83.1688 65.0806 86.343C52.9257 89.2092 48.873 91.0466 43.5507 87.3582C41.506 85.5463 40.7729 82.629 41.3203 78.4268C42.59 71.5765 46.021 64.9842 52.1156 57.6717C55.5172 53.8678 58.6728 50.6033 62.8394 49.2925C66.0328 48.4701 65.7343 50.9884 65.3479 51.3486C64.9401 51.3486 64.2552 51.413 63.7258 51.7597C63.2962 52.094 62.1168 53.1736 62.0535 54.6259C61.9621 56.849 64.2548 56.3863 65.2437 55.1657C66.3097 53.7902 67.885 51.1561 66.6458 48.7012C66.1264 47.8274 65.229 47.2235 64.1148 47.0179C60.2995 46.7991 56.7463 48.6241 53.4668 50.6418C46.2949 55.641 40.5579 62.5683 37.3116 70.1508C35.4402 74.7258 33.7476 81.2793 36.2845 86.6133C38.2473 90.3143 42.3219 92.2802 47.1832 91.8691C50.5927 91.5096 54.7156 90.4039 57.4884 89.7362C60.2615 89.0674 74.4554 84.1715 79.1192 92.6927C79.1192 92.6927 80.67 89.6718 84.5457 89.6073C87.7321 89.3123 92.329 90.5329 95.6764 93C94.5612 91.317 91.3993 88.8366 88.7615 87.1271Z" fill="#E61A27"/>
<path d="M66.5279 58.5327C63.8731 56.7849 58.5374 60.1263 54.2637 65.8578C50.3556 70.999 48.6681 76.9742 50.5047 79.7374C53.2365 82.9887 58.3081 78.2595 60.4648 75.7282L60.7431 75.4323C62.2098 73.8515 63.3427 71.9493 64.4396 70.1241C64.4396 70.1241 65.4476 68.4534 65.4957 68.3762C66.1187 68.261 66.8691 68.081 67.7147 67.8367C67.7027 67.875 64.4795 73.3113 64.8083 76.0097C64.9107 76.8329 64.8327 79.8401 67.7585 80.7524C71.6582 81.4082 74.7722 78.3749 77.5193 75.676C77.5193 75.676 77.9874 75.2266 78.2522 74.9701C78.1852 75.2391 78.0979 75.5982 78.0979 75.5982C76.9562 79.5823 78.4951 80.4184 79.4578 80.7267C82.3672 81.5756 85.8428 77.3342 85.8542 77.3342C85.7639 78.6702 85.5005 79.7753 86.904 80.6623C88.2286 81.1382 89.5693 80.4126 90.5885 79.7314C94.2591 77.1356 97.2163 73.0725 99.6047 69.5606H98.0811C98.0631 69.5606 94.3218 75.0022 91.8922 76.1849C91.8884 76.1849 91.4462 76.4127 91.1915 76.2325C90.876 75.9626 91.0004 75.4012 91.1952 75.0036C91.2075 74.9778 100.576 58.6732 100.576 58.6732H96.1526C96.1526 58.6732 95.6694 59.4576 95.6301 59.5091C95.6003 59.4834 95.5294 59.3486 95.4804 59.2839C92.7399 55.48 86.5339 61.3311 81.8616 68.1165C80.0628 70.7256 77.7725 73.6632 75.3978 75.7837C75.3978 75.7837 71.8796 79.0197 70.3765 76.6947C69.827 75.7178 69.996 74.2896 70.306 73.3517C72.0561 68.3523 75.0719 63.8152 78.5039 61.0777C79.4725 60.32 80.5256 60.1009 81.048 60.4222C81.5461 60.7183 81.6264 61.4502 81.3114 61.9515C80.5122 61.9259 79.8717 62.1696 79.3512 62.7094C78.3257 63.7891 77.9694 64.8302 78.2954 65.8071C79.8794 68.0689 83.0383 63.5964 82.8855 60.8719C82.8309 59.895 82.3117 58.97 81.5364 58.5197C80.3813 57.8261 78.619 58.0057 77.4785 58.5587C75.9517 59.1368 73.5351 61.1543 72.1244 62.7224C70.3485 64.689 67.3026 66.8735 66.3503 66.6289C66.6616 65.7934 69.2343 60.5116 66.5279 58.5327ZM87.8536 66.3464C88.7141 65.1514 91.2185 61.9512 91.8291 61.4116C93.8825 59.5988 94.7033 60.3964 94.7743 60.9615C92.8579 64.4056 90.596 68.3512 88.4694 71.8984C88.4738 71.8858 87.8039 72.9136 87.8039 72.9136C86.8647 74.3525 85.919 75.5864 84.3763 76.4473C84.1564 76.5121 83.7938 76.5379 83.5524 76.3572C83.2619 76.1644 83.1473 75.843 83.18 75.5088C83.2726 74.4039 84.3937 71.0246 87.8536 66.3464ZM63.7902 68.4153C63.7902 68.4153 63.7515 68.5314 63.7326 68.5693C63.7277 68.5693 61.8039 71.7176 61.8039 71.7176C60.643 73.2729 59.1935 75.2268 57.3815 76.1645C56.8444 76.3444 56.1019 76.4604 55.7236 75.9852C54.9215 75.0212 55.3349 73.6845 55.6707 72.6052L55.7897 72.2196C56.7526 69.5982 58.2801 67.2844 59.7673 65.1382C59.7858 65.1256 59.8275 65.1128 59.8425 65.1128C59.8462 65.1256 59.8522 65.1256 59.8546 65.1514C60.7877 66.9503 62.5374 67.7853 63.8458 68.1714C63.8537 68.1714 63.8623 68.1842 63.8623 68.21C63.8625 68.2483 63.8411 68.3001 63.7902 68.4153ZM65.6126 64.7017C65.6041 64.7273 64.7558 66.6807 64.7558 66.6807C64.6332 66.7834 64.4393 66.7322 64.217 66.6807L63.8362 66.6161C62.6404 66.2436 61.7385 65.4468 61.4604 64.4959C61.077 62.6452 62.6525 61.1929 63.3466 60.6663C64.0126 60.2032 65.0481 59.9591 65.6494 60.4348C66.0202 60.8719 66.1607 61.4372 66.1607 62.0544C66.1609 62.8894 65.904 63.8275 65.6126 64.7017ZM121.532 70.6643C121.106 69.7392 120.093 69.1479 119.014 69.212C115.51 69.5336 112.083 72.4251 110.283 76.5758C109.339 78.7094 108.823 80.4698 108.485 83.2714C109.575 82.0123 111.798 79.9433 114.32 78.8123C114.32 78.8123 114.663 76.1264 116.413 73.7359C117.075 72.7461 118.4 71.1526 119.888 71.5765C121.188 72.0136 120.731 75.6251 119.003 79.1199C117.725 81.6906 115.768 84.2616 113.789 86.0347C112.039 87.5254 109.449 89.3246 107.184 87.9368C105.757 87.089 105.029 85.3149 105.182 83.0275C105.864 76.5377 108.808 71.0114 113.022 64.7143C117.366 58.8669 122.154 52.8653 128.606 49.6647C129.921 48.9966 131.14 48.8424 132.193 49.2536C132.193 49.2536 126.137 52.595 123.251 58.7768C122.517 60.3449 121.495 62.4648 122.524 64.3413C123.061 65.3179 124.015 65.3951 124.784 65.3437C128.322 64.521 130.608 61.2054 132.476 58.1727C133.559 55.8723 134.521 53.5847 134.521 51.0401C134.521 50.7317 134.505 50.3206 134.479 50.0119C136.17 49.1126 139.636 50.7059 139.636 50.7059C142.345 51.6059 148.113 56.0398 150.059 56.8877C151.008 55.7826 152.567 54.1121 153.446 53.2765L152.174 52.4925C150.139 51.2459 147.988 50.0634 145.87 48.894C141.062 46.2598 137.147 47.1849 135.155 47.9047C134.372 48.1872 133.657 48.4315 133.657 48.4315C132.178 46.8122 129.754 46.9661 127.967 47.4033C121.542 49.2538 115.577 53.7646 109.181 61.5914C104.479 67.7217 101.563 73.0167 100.008 78.247C98.8102 81.7682 98.446 86.9473 101.371 90.019C103.857 92.6272 107.154 92.0621 109.483 91.1244C114.527 88.6312 119.061 83.2589 121.321 77.0771C121.866 75.2396 122.471 72.6437 121.532 70.6643ZM133.132 51.2973C132.465 58.9826 126.511 63.4939 125.038 63.8531C124.145 64.0328 122.622 63.6347 123.982 60.4094C125.985 56.0651 129.404 52.3771 133.072 50.4878C133.161 50.8091 133.159 51.0142 133.132 51.2973ZM168.447 52.2737C165.245 54.0989 161.925 55.2809 157.907 54.8698C156.793 56.1296 155.709 57.4275 154.709 58.7638C160.349 60.2032 166.329 57.0032 169.663 53.9577C173.191 50.8861 175 47.018 175 47.018C175 47.018 172.356 50.0507 168.447 52.2737ZM107.928 58.6735H103.727L101.357 62.5368H105.557L107.928 58.6735Z" fill="#E61A27"/>
<path d="M157.89 87.4848C157.438 87.7932 156.804 87.5561 157.041 86.8495C157.632 85.0503 159.981 81.3837 159.981 81.3837L166.526 69.7366H162.043C161.83 70.0878 161.374 70.8941 161.374 70.8941C161.167 70.5475 160.547 69.7768 160.292 69.6101C159.196 68.9156 157.59 69.244 156.481 69.8735C151.662 72.7013 148.146 78.2881 145.372 82.645C145.372 82.645 142.453 87.4882 140.833 87.8483C139.568 87.9512 139.698 86.2412 139.753 85.8428C140.242 82.9636 141.378 80.2264 142.523 77.746C144.85 76.1268 147.507 74.0064 149.921 71.6803C155.16 66.6549 159.577 60.9617 160.222 59.6894C160.222 59.6894 159.524 59.8309 158.699 59.8564C154.668 65.4982 146.42 73.6978 143.919 74.9185C145.027 72.2447 152.184 59.4836 158.275 53.3793L159.233 52.4537C160.715 51.0014 162.251 49.5107 163.447 49.2665C163.574 49.2536 163.736 49.2665 163.877 49.5625C163.93 50.6932 163.511 51.5288 163.029 52.4797L162.355 53.8678C162.355 53.8678 163.31 53.6878 163.938 53.4817C164.666 52.1072 165.472 50.5645 165.175 48.7272C165.076 48.1359 164.649 47.6862 164.092 47.5833C162.275 47.2363 160.295 48.5853 158.702 49.6781L158.637 49.7164C150.447 56.155 143.531 65.4339 137.485 78.1057C137.046 78.4393 135.353 78.8381 135.065 78.6451C135.663 77.4117 136.414 75.7535 136.79 73.9542C136.856 73.4399 136.916 72.9134 136.916 72.3994C136.916 71.2933 136.652 70.2527 135.664 69.5334C134.506 68.955 133.075 69.225 132.11 69.6616C127.788 71.4608 124.558 75.9078 122.227 79.57C120.973 81.8968 119.723 84.3888 119.377 87.2423C119.133 89.4781 119.63 90.9177 120.897 91.6375C122.199 92.3053 123.839 91.6112 124.483 91.2773C128.862 88.9639 131.921 84.3248 134.333 80.0837C134.429 80.071 135.746 80.0327 136.742 79.7753C136.755 79.7753 136.76 79.7753 136.782 79.7886C136.725 79.9808 136.211 81.5234 136.211 81.5234C134.682 86.021 133.975 89.08 135.419 90.8919C137.482 93.4494 140.898 90.8023 143.676 87.3061C143.08 91.4954 145.244 92.1513 146.893 91.8303C148.788 91.3165 150.899 89.2855 151.879 88.2448C151.564 89.4655 151.65 91.6507 153.374 91.8688C154.555 92.0879 155.439 91.4431 156.462 90.8903C160.132 88.8853 164.524 82.2041 165.665 80.2724H164.169C162.548 82.7314 160.485 85.9548 157.89 87.4848ZM124.952 87.0374C124.719 86.6902 124.642 86.3109 124.634 85.9007C124.589 83.3806 127.291 78.868 129.198 76.4095H129.202C130.002 78.1655 131.811 79.2943 132.904 79.77C131.547 82.8032 126.893 89.2992 124.952 87.0374ZM133.67 78.414C133.541 78.5046 131.259 77.733 130.817 75.6126C130.443 73.787 131.696 72.3606 132.908 71.6417C133.428 71.2301 134.212 71.0892 134.787 71.294C135.32 71.6545 135.465 72.2976 135.465 72.9903C135.465 73.4153 135.409 73.8518 135.359 74.2501L135.348 74.3404C134.966 75.7652 134.402 77.1344 133.67 78.414ZM151.974 86.2278C151.972 86.2278 151.541 86.6133 151.541 86.6133C150.926 87.1657 150.292 87.7568 149.527 87.4611C149.316 87.3842 149.168 87.1017 149.132 86.8825C149.097 85.3017 149.806 83.837 150.494 82.4106L150.671 82.0378C152.65 78.7222 154.95 74.8154 158.328 72.1041C158.897 71.6919 159.515 71.3456 160.167 71.6157C160.317 71.7569 160.492 72.0012 160.492 72.2451C160.492 72.3225 160.423 72.528 160.384 72.5921C159.44 74.1221 158.542 75.7282 157.668 77.2703C155.96 80.3162 154.189 83.4642 151.974 86.2278Z" fill="#E61A27"/>
<rect x="15" y="10" width="180" height="120" rx="20" fill="white" style="mix-blend-mode:color"/>
<defs>
<filter id="filter0_d_11226_90" x="0" y="0" width="210" height="150" filterUnits="userSpaceOnUse" color-interpolation-filters="sRGB">
<feFlood flood-opacity="0" result="BackgroundImageFix"/>
<feColorMatrix in="SourceAlpha" type="matrix" values="0 0 0 0 0 0 0 0 0 0 0 0 0 0 0 0 0 0 127 0" result="hardAlpha"/>
<feOffset dy="5"/>
<feGaussianBlur stdDeviation="7.5"/>
<feComposite in2="hardAlpha" operator="out"/>
<feColorMatrix type="matrix" values="0 0 0 0 0 0 0 0 0 0 0 0 0 0 0 0 0 0 0.1 0"/>
<feBlend mode="normal" in2="BackgroundImageFix" result="effect1_dropShadow_11226_90"/>
<feBlend mode="normal" in="SourceGraphic" in2="effect1_dropShadow_11226_90" result="shape"/>
</filter>
</defs>
</svg>
