<svg width="138" height="34" viewBox="0 0 138 34" fill="none" xmlns="http://www.w3.org/2000/svg">
<g clip-path="url(#clip0_9237_60241)">
<path d="M4.31172 11.24H0.0117188V22H1.93172V17.84H4.31172C6.71172 17.84 8.21172 16.68 8.21172 14.54C8.21172 12.4 6.71172 11.24 4.31172 11.24ZM4.21172 16.24H1.93172V12.94H4.24172C5.62172 12.94 6.35172 13.53 6.35172 14.59C6.35172 15.65 5.59172 16.19 4.24172 16.19L4.21172 16.24Z" fill="#BDBDBD"/>
<path d="M12.3423 14C11.8166 13.9939 11.2955 14.0979 10.8123 14.3052C10.3291 14.5125 9.89467 14.8185 9.53681 15.2037C9.17895 15.5889 8.90561 16.0446 8.73435 16.5417C8.56309 17.0388 8.49768 17.5662 8.54234 18.09C8.49547 18.6167 8.55875 19.1475 8.72817 19.6484C8.89758 20.1493 9.16943 20.6095 9.52639 20.9997C9.88336 21.3898 10.3176 21.7014 10.8016 21.9145C11.2855 22.1277 11.8085 22.2378 12.3373 22.2378C12.8662 22.2378 13.3892 22.1277 13.8731 21.9145C14.3571 21.7014 14.7913 21.3898 15.1483 20.9997C15.5053 20.6095 15.7771 20.1493 15.9465 19.6484C16.1159 19.1475 16.1792 18.6167 16.1323 18.09C16.1785 17.5667 16.1145 17.0395 15.9444 16.5424C15.7743 16.0454 15.5019 15.5895 15.1448 15.2041C14.7877 14.8188 14.3539 14.5125 13.8712 14.3051C13.3885 14.0977 12.8677 13.9938 12.3423 14ZM12.3423 20.67C11.1223 20.67 10.3423 19.67 10.3423 18.09C10.3423 16.51 11.1023 15.51 12.3423 15.51C13.5823 15.51 14.3423 16.51 14.3423 18.09C14.3423 19.67 13.5523 20.66 12.3423 20.66V20.67Z" fill="#BDBDBD"/>
<path d="M24.0229 19.3499L22.6129 14.1299H21.1329L19.7329 19.3499L18.3129 14.1299H16.4629L18.8329 22.0099H20.3929L21.8329 16.8499L23.2729 22.0099H24.8329L27.2029 14.1299H25.4229L24.0229 19.3499Z" fill="#BDBDBD"/>
<path d="M31.2424 14C30.7235 14.0096 30.2121 14.1246 29.739 14.3379C29.266 14.5513 28.8412 14.8585 28.4905 15.241C28.1398 15.6235 27.8705 16.0733 27.6989 16.563C27.5273 17.0528 27.4571 17.5723 27.4924 18.09C27.4506 18.6157 27.519 19.1444 27.6932 19.6422C27.8674 20.14 28.1436 20.596 28.504 20.9809C28.8645 21.3659 29.3014 21.6714 29.7867 21.8778C30.272 22.0843 30.795 22.1872 31.3224 22.18C32.0474 22.2191 32.7664 22.0297 33.3781 21.6386C33.9899 21.2476 34.4635 20.6744 34.7324 20L33.2424 19.38C33.1255 19.7664 32.8806 20.1016 32.5481 20.3306C32.2156 20.5595 31.8151 20.6686 31.4124 20.64C31.1255 20.6468 30.8403 20.5954 30.5739 20.4888C30.3076 20.3821 30.0656 20.2226 29.8627 20.0197C29.6598 19.8168 29.5002 19.5748 29.3936 19.3085C29.287 19.0421 29.2355 18.7568 29.2424 18.47H34.7624V17.87C34.7824 15.71 33.5624 14 31.2424 14ZM29.3124 17.13C29.3825 16.6708 29.6167 16.2526 29.9716 15.9529C30.3264 15.6532 30.7779 15.4923 31.2424 15.5C31.4631 15.4813 31.6852 15.5099 31.894 15.5837C32.1027 15.6576 32.2934 15.775 32.4533 15.9283C32.6132 16.0815 32.7386 16.2671 32.8212 16.4726C32.9038 16.678 32.9417 16.8987 32.9324 17.12L29.3124 17.13Z" fill="#BDBDBD"/>
<path d="M37.9328 15.3V14.13H36.1328V22H37.9328V17.87C37.9168 17.6031 37.9575 17.3359 38.0524 17.086C38.1472 16.8361 38.294 16.6091 38.483 16.4201C38.672 16.2311 38.899 16.0843 39.1489 15.9895C39.3988 15.8947 39.666 15.8539 39.9328 15.87C40.1525 15.8544 40.3731 15.8544 40.5928 15.87V14.07C40.4528 14.07 40.2928 14.07 40.0828 14.07C39.6442 14.0472 39.2084 14.1511 38.8272 14.3692C38.446 14.5873 38.1355 14.9104 37.9328 15.3Z" fill="#BDBDBD"/>
<path d="M44.7229 14C44.204 14.0096 43.6925 14.1246 43.2195 14.3379C42.7464 14.5513 42.3217 14.8585 41.971 15.241C41.6203 15.6235 41.351 16.0733 41.1794 16.563C41.0078 17.0528 40.9375 17.5723 40.9729 18.09C40.9311 18.6157 40.9995 19.1444 41.1737 19.6422C41.3479 20.14 41.624 20.596 41.9845 20.9809C42.345 21.3659 42.7819 21.6714 43.2672 21.8778C43.7525 22.0843 44.2755 22.1872 44.8029 22.18C45.5212 22.2106 46.2313 22.0172 46.835 21.6267C47.4387 21.2361 47.9062 20.6677 48.1729 20L46.6329 19.41C46.5159 19.7964 46.2711 20.1316 45.9386 20.3606C45.6061 20.5895 45.2056 20.6986 44.8029 20.67C44.5219 20.6674 44.2442 20.609 43.986 20.4982C43.7278 20.3874 43.4942 20.2263 43.2988 20.0244C43.1034 19.8225 42.9501 19.5837 42.8478 19.322C42.7455 19.0603 42.6962 18.7809 42.7029 18.5H48.2429V17.9C48.2429 15.71 47.0029 14 44.7229 14ZM42.7929 17.13C42.8649 16.6744 43.0986 16.2599 43.4511 15.9624C43.8037 15.6649 44.2516 15.5043 44.7129 15.51C44.9335 15.4913 45.1556 15.5199 45.3644 15.5937C45.5732 15.6676 45.7639 15.785 45.9238 15.9383C46.0836 16.0915 46.209 16.2771 46.2916 16.4826C46.3742 16.688 46.4122 16.9087 46.4029 17.13H42.7929Z" fill="#BDBDBD"/>
<path d="M54.8023 15C54.5248 14.6744 54.1775 14.4154 53.7863 14.2423C53.3951 14.0692 52.9699 13.9864 52.5423 14C50.3323 14 49.0723 15.85 49.0723 18.09C49.0723 20.33 50.3323 22.18 52.5423 22.18C52.9702 22.1958 53.3961 22.114 53.7876 21.9407C54.1792 21.7675 54.5262 21.5073 54.8023 21.18V22H56.6023V11.24H54.8023V15ZM54.8023 18.35C54.8426 18.6351 54.8209 18.9256 54.7386 19.2016C54.6563 19.4775 54.5154 19.7325 54.3255 19.949C54.1356 20.1654 53.9012 20.3384 53.6383 20.4559C53.3754 20.5734 53.0902 20.6328 52.8023 20.63C51.4923 20.63 50.8023 19.63 50.8023 18.11C50.8023 16.59 51.5023 15.59 52.8023 15.59C53.9123 15.59 54.8023 16.4 54.8023 17.88V18.35Z" fill="#BDBDBD"/>
<path d="M66.5524 14C66.1168 13.9809 65.6825 14.061 65.2823 14.2343C64.8822 14.4075 64.5266 14.6693 64.2424 15V11.24H62.4424V22H64.2424V21.17C64.5214 21.4964 64.8704 21.7558 65.2633 21.9289C65.6563 22.102 66.0832 22.1844 66.5124 22.17C68.7124 22.17 69.9724 20.31 69.9724 18.08C69.9724 15.85 68.7524 14 66.5524 14ZM66.2424 20.6C65.9544 20.6028 65.6692 20.5434 65.4064 20.4259C65.1435 20.3084 64.9091 20.1354 64.7192 19.919C64.5293 19.7025 64.3883 19.4475 64.3061 19.1716C64.2238 18.8956 64.2021 18.6051 64.2424 18.32V17.85C64.2424 16.37 65.0824 15.56 66.2424 15.56C67.5424 15.56 68.2424 16.56 68.2424 18.08C68.2424 19.6 67.4924 20.6 66.2424 20.6Z" fill="#BDBDBD"/>
<path d="M74.1718 19.6599L72.2418 14.1299H70.3418L73.2418 21.7199L72.9418 22.4599C72.8908 22.7134 72.7436 22.9373 72.531 23.0846C72.3185 23.2319 72.0571 23.2912 71.8018 23.2499C71.6021 23.2645 71.4015 23.2645 71.2018 23.2499V24.7599C71.4434 24.7958 71.6875 24.8125 71.9318 24.8099C72.5561 24.8553 73.1766 24.6799 73.6847 24.3143C74.1928 23.9487 74.5564 23.4163 74.7118 22.8099L77.9518 14.1899H76.0618L74.1718 19.6599Z" fill="#BDBDBD"/>
<path d="M112.242 12.43C111.847 12.4277 111.456 12.5034 111.09 12.6527C110.725 12.802 110.392 13.0219 110.112 13.3L109.972 12.61H107.582V25.53L110.302 24.94V21.81C110.843 22.263 111.526 22.5109 112.232 22.51C114.172 22.51 115.952 20.92 115.952 17.4C115.952 14.18 114.152 12.43 112.242 12.43ZM111.592 20.06C111.353 20.0737 111.115 20.0342 110.893 19.9443C110.672 19.8543 110.473 19.7162 110.312 19.54V15.43C110.474 15.2473 110.675 15.1031 110.9 15.008C111.125 14.9128 111.368 14.8691 111.612 14.88C112.612 14.88 113.292 16.01 113.292 17.46C113.292 18.91 112.602 20.06 111.592 20.06Z" fill="#BDBDBD"/>
<path d="M120.972 12.4299C118.352 12.4299 116.762 14.6899 116.762 17.5399C116.762 20.9099 118.642 22.6199 121.322 22.6199C122.368 22.637 123.401 22.3857 124.322 21.8899V19.6399C123.485 20.062 122.559 20.2748 121.622 20.2599C120.542 20.2599 119.622 19.8699 119.482 18.5599H124.862C124.862 18.4099 124.862 17.8199 124.862 17.5599C124.952 14.6899 123.592 12.4299 120.972 12.4299ZM119.502 16.4999C119.502 15.2399 120.272 14.7099 120.952 14.7099C121.632 14.7099 122.352 15.2399 122.352 16.4999H119.502Z" fill="#BDBDBD"/>
<path d="M100.242 13.36L100.072 12.54H97.752V22.25H100.432V15.67C100.674 15.3762 101 15.1632 101.366 15.0595C101.733 14.9559 102.122 14.9665 102.482 15.09V12.54C102.073 12.3798 101.619 12.3747 101.207 12.5257C100.794 12.6768 100.451 12.9735 100.242 13.36Z" fill="#BDBDBD"/>
<path d="M86.7021 15.4601C86.7021 15.0201 87.0621 14.8501 87.6321 14.8501C88.5768 14.8704 89.5028 15.1174 90.3321 15.5701V12.9401C89.4747 12.5934 88.557 12.4201 87.6321 12.4301C85.4221 12.4301 83.9521 13.6101 83.9521 15.5901C83.9521 18.6901 88.0921 18.1901 88.0921 19.5201C88.0921 20.0401 87.6521 20.2101 87.0921 20.2101C86.0356 20.1484 85.0082 19.8401 84.0921 19.3101V22.0001C85.0363 22.4212 86.0584 22.6392 87.0921 22.6401C89.3521 22.6401 90.9121 21.4901 90.9121 19.4801C90.8621 16.1201 86.7021 16.7201 86.7021 15.4601Z" fill="#BDBDBD"/>
<path d="M94.5219 10.24L91.8719 10.82V19.75C91.8583 20.1263 91.9215 20.5015 92.0577 20.8526C92.194 21.2036 92.4004 21.5233 92.6643 21.7919C92.9282 22.0605 93.2442 22.2725 93.5928 22.4148C93.9414 22.5572 94.3154 22.627 94.6919 22.62C95.3489 22.6494 96.0035 22.5226 96.6019 22.25V20C96.2519 20.15 94.5419 20.66 94.5419 19V15H96.6019V12.66H94.5419L94.5219 10.24Z" fill="#BDBDBD"/>
<path d="M103.492 11.7L106.222 11.13V8.96997L103.492 9.53997V11.7Z" fill="#BDBDBD"/>
<path d="M106.222 12.6101H103.492V22.2501H106.222V12.6101Z" fill="#BDBDBD"/>
</g>
<defs>
<clipPath id="clip0_9237_60241">
<rect width="137" height="34" fill="white" transform="translate(0.242188)"/>
</clipPath>
</defs>
</svg>
